<svg width="39" height="39" viewBox="0 0 39 39" fill="none" xmlns="http://www.w3.org/2000/svg">
<rect x="0.5" y="0.5" width="38" height="38" rx="4.5" fill="white" stroke="#BABABA"/>
<path d="M19.5 9.64283C26.0133 9.64283 31.3125 13.3278 31.3125 17.8571C31.3125 22.3861 26.0133 26.0714 19.5 26.0714L18.801 26.0739C18.3373 26.0739 18.034 26.062 17.5598 25.9929L16.6144 25.8615L16.0077 26.5762C15.7289 26.9043 14.3059 28.0424 12.7352 28.7751C13.0546 27.9529 13.29 27.055 13.3111 26.1671L13.3195 26.1182V24.9727L12.4003 24.5156C9.40495 23.0239 7.6875 20.5974 7.6875 17.8571C7.6875 13.3278 12.9867 9.64283 19.5 9.64283ZM19.5 8C12.0434 8 6 12.4135 6 17.8571C6 21.2471 8.06339 24.2014 11.6316 25.9773C11.6316 25.9983 11.6249 26.0135 11.6249 26.0369C11.6249 27.5097 10.7769 29.1291 10.2799 29.9629H10.2812C10.242 30.0525 10.2188 30.1506 10.2188 30.2558C10.2188 30.6686 10.5605 31 10.9836 31C11.0473 31 11.1486 30.9873 11.1857 30.9873C11.1945 30.9873 11.1996 30.9873 11.1988 30.9897C13.8355 30.5704 16.7346 28.3024 17.3113 27.6182C17.904 27.704 18.3044 27.7167 18.8005 27.7167C19.0098 27.7167 19.2355 27.7143 19.5 27.7143C26.9554 27.7143 33 23.3016 33 17.8571C33 12.4135 26.9554 7.99997 19.5 8Z" fill="#575555"/>
</svg>
