<svg width="28" height="23" viewBox="0 0 28 23" fill="none" xmlns="http://www.w3.org/2000/svg">
<path d="M13.9995 1.64283C20.3459 1.64283 25.5092 5.32778 25.5092 9.85713C25.5092 14.3861 20.3459 18.0714 13.9995 18.0714L13.3184 18.0739C12.8667 18.0739 12.5711 18.062 12.1091 17.9929L11.1879 17.8615L10.5968 18.5762C10.3251 18.9043 8.93861 20.0424 7.40824 20.7751C7.71941 19.9529 7.94878 19.055 7.96933 18.1671L7.97755 18.1182V16.9727L7.08186 16.5156C4.16335 15.0239 2.48993 12.5974 2.48993 9.85711C2.48993 5.32775 7.65323 1.64283 13.9995 1.64283ZM13.9995 1.11972e-10C6.73411 1.11972e-10 0.845703 4.41351 0.845703 9.85711C0.845703 13.2471 2.85619 16.2014 6.33291 17.9773C6.33291 17.9983 6.32634 18.0135 6.32634 18.0369C6.32634 19.5097 5.50011 21.1291 5.01588 21.9629H5.01712C4.97889 22.0525 4.95628 22.1506 4.95628 22.2558C4.95628 22.6686 5.28924 23 5.70153 23C5.7636 23 5.86225 22.9873 5.89842 22.9873C5.90706 22.9873 5.91199 22.9873 5.91117 22.9897C8.48028 22.5704 11.3051 20.3024 11.867 19.6182C12.4445 19.704 12.8346 19.7167 13.318 19.7167C13.5219 19.7167 13.7418 19.7143 13.9995 19.7143C21.2638 19.7143 27.1534 15.3016 27.1534 9.85713C27.1534 4.41353 21.2638 -2.56695e-05 13.9995 1.11972e-10Z" fill="#575555"/>
</svg>
