<svg width="38" height="39" viewBox="0 0 38 39" fill="none" xmlns="http://www.w3.org/2000/svg">
<rect x="0.5" y="0.5" width="37" height="38" rx="4.5" fill="#A4A4A4" stroke="#BABABA"/>
<path d="M18.9995 9.64283C25.3459 9.64283 30.5092 13.3278 30.5092 17.8571C30.5092 22.3861 25.3459 26.0714 18.9995 26.0714L18.3184 26.0739C17.8667 26.0739 17.5711 26.062 17.1091 25.9929L16.1879 25.8615L15.5968 26.5762C15.3251 26.9043 13.9386 28.0424 12.4082 28.7751C12.7194 27.9529 12.9488 27.055 12.9693 26.1671L12.9776 26.1182V24.9727L12.0819 24.5156C9.16335 23.0239 7.48993 20.5974 7.48993 17.8571C7.48993 13.3278 12.6532 9.64283 18.9995 9.64283ZM18.9995 8C11.7341 8 5.8457 12.4135 5.8457 17.8571C5.8457 21.2471 7.85619 24.2014 11.3329 25.9773C11.3329 25.9983 11.3263 26.0135 11.3263 26.0369C11.3263 27.5097 10.5001 29.1291 10.0159 29.9629H10.0171C9.97889 30.0525 9.95628 30.1506 9.95628 30.2558C9.95628 30.6686 10.2892 31 10.7015 31C10.7636 31 10.8623 30.9873 10.8984 30.9873C10.9071 30.9873 10.912 30.9873 10.9112 30.9897C13.4803 30.5704 16.3051 28.3024 16.867 27.6182C17.4445 27.704 17.8346 27.7167 18.318 27.7167C18.5219 27.7167 18.7418 27.7143 18.9995 27.7143C26.2638 27.7143 32.1534 23.3016 32.1534 17.8571C32.1534 12.4135 26.2638 7.99997 18.9995 8Z" fill="#575555"/>
</svg>
