<svg width="41" height="41" viewBox="0 0 41 41" fill="none" xmlns="http://www.w3.org/2000/svg">
<rect x="1" y="1" width="39" height="39" rx="5" fill="#A4A4A4"/>
<rect x="1" y="1" width="39" height="39" rx="5" stroke="#BABABA" stroke-miterlimit="0" stroke-linejoin="bevel"/>
<path d="M21.4249 13.6399C21.6839 13.3167 21.6319 12.8447 21.3087 12.5856C20.9855 12.3266 20.5134 12.3786 20.2544 12.7018L21.4249 13.6399ZM11.2554 25.1292L11.8234 25.619C11.8293 25.6122 11.835 25.6053 11.8406 25.5983L11.2554 25.1292ZM10.9775 25.8085L10.229 25.7597L10.2283 25.7738L10.9775 25.8085ZM10.75 30.7209L10.0008 30.6862C9.99908 30.7234 10.0001 30.7607 10.004 30.7978L10.75 30.7209ZM12.0289 31.8372L12.0534 32.5868C12.1034 32.5852 12.1531 32.5786 12.2018 32.567L12.0289 31.8372ZM16.9039 30.6819L17.0769 31.4117L17.0885 31.4088L16.9039 30.6819ZM17.5295 30.2854L18.1081 30.7627L18.1146 30.7546L17.5295 30.2854ZM27.9296 18.5151C28.1887 18.1919 28.1368 17.7199 27.8137 17.4608C27.4906 17.2016 27.0185 17.2535 26.7594 17.5767L27.9296 18.5151ZM20.2594 12.7016C20.0003 13.0248 20.0521 13.4968 20.3753 13.7559C20.6984 14.0151 21.1704 13.9632 21.4296 13.6401L20.2594 12.7016ZM23.425 9.95337L24.0101 10.4226C24.0199 10.4103 24.0294 10.3977 24.0385 10.3848L23.425 9.95337ZM26.0721 9.43337L26.5519 8.85693C26.528 8.83705 26.503 8.81867 26.4768 8.8019L26.0721 9.43337ZM29.7072 12.4591L30.2381 11.9293C30.2218 11.913 30.2048 11.8974 30.1871 11.8827L29.7072 12.4591ZM30.2548 13.793L31.0048 13.7972V13.7972L30.2548 13.793ZM29.6926 15.1209L29.1677 14.5852C29.1464 14.6061 29.1264 14.6281 29.1078 14.6514L29.6926 15.1209ZM26.7596 17.5764C26.5003 17.8994 26.552 18.3714 26.875 18.6307C27.198 18.89 27.6701 18.8384 27.9294 18.5154L26.7596 17.5764ZM21.5862 13.0597C21.5248 12.6501 21.143 12.3678 20.7334 12.4291C20.3237 12.4905 20.0414 12.8724 20.1028 13.282L21.5862 13.0597ZM27.4455 18.789C27.8559 18.7333 28.1434 18.3553 28.0877 17.9449C28.0319 17.5344 27.654 17.2469 27.2435 17.3027L27.4455 18.789ZM20.2544 12.7018L10.6701 24.6602L11.8406 25.5983L21.4249 13.6399L20.2544 12.7018ZM10.6873 24.6395C10.4169 24.9532 10.256 25.3464 10.2291 25.7597L11.7259 25.8573C11.7316 25.7694 11.7659 25.6857 11.8234 25.619L10.6873 24.6395ZM10.2283 25.7738L10.0008 30.6862L11.4992 30.7556L11.7267 25.8432L10.2283 25.7738ZM10.004 30.7978C10.1114 31.8398 11.0065 32.6211 12.0534 32.5868L12.0044 31.0876C11.7447 31.0961 11.5227 30.9023 11.496 30.6439L10.004 30.7978ZM12.2018 32.567L17.0768 31.4117L16.7309 29.9521L11.8559 31.1075L12.2018 32.567ZM17.0885 31.4088C17.4884 31.3072 17.8455 31.0809 18.1081 30.7626L16.9509 29.8081C16.8913 29.8804 16.8101 29.9319 16.7193 29.9549L17.0885 31.4088ZM18.1146 30.7546L27.9296 18.5151L26.7594 17.5767L16.9444 29.8162L18.1146 30.7546ZM21.4296 13.6401L24.0101 10.4226L22.8399 9.48413L20.2594 12.7016L21.4296 13.6401ZM24.0385 10.3848C24.4082 9.85917 25.1264 9.71809 25.6675 10.0648L26.4768 8.8019C25.2593 8.02173 23.6434 8.33917 22.8115 9.5219L24.0385 10.3848ZM25.5923 10.0098L29.2274 13.0356L30.1871 11.8827L26.5519 8.85693L25.5923 10.0098ZM29.1764 12.989C29.3882 13.2011 29.5064 13.4891 29.5048 13.7889L31.0048 13.7972C31.0086 13.0972 30.7326 12.4247 30.2381 11.9293L29.1764 12.989ZM29.5048 13.7889C29.5031 14.0887 29.3818 14.3754 29.1677 14.5852L30.2176 15.6565C30.7175 15.1666 31.0009 14.4971 31.0048 13.7972L29.5048 13.7889ZM29.1078 14.6514L26.7596 17.5764L27.9294 18.5154L30.2775 15.5904L29.1078 14.6514ZM20.1028 13.282C20.6325 16.8168 23.9038 19.2703 27.4455 18.789L27.2435 17.3027C24.5147 17.6735 21.9943 15.7832 21.5862 13.0597L20.1028 13.282Z" fill="#575555"/>
</svg>
