<svg width="21" height="25" viewBox="0 0 21 25" fill="none" xmlns="http://www.w3.org/2000/svg">
<path d="M11.4249 5.63991C11.6839 5.3167 11.6319 4.84468 11.3087 4.58563C10.9855 4.32659 10.5134 4.37861 10.2544 4.70182L11.4249 5.63991ZM1.25537 17.1292L1.82341 17.619C1.82926 17.6122 1.835 17.6053 1.84061 17.5983L1.25537 17.1292ZM0.9775 17.8085L0.228957 17.7597L0.228303 17.7738L0.9775 17.8085ZM0.75 22.7209L0.000802995 22.6862C-0.000921735 22.7234 0.000132816 22.7607 0.00395788 22.7978L0.75 22.7209ZM2.02888 23.8372L2.05339 24.5868C2.10341 24.5852 2.15314 24.5786 2.20183 24.567L2.02888 23.8372ZM6.90387 22.6819L7.07686 23.4117L7.0885 23.4088L6.90387 22.6819ZM7.5295 22.2854L8.10811 22.7627L8.11461 22.7546L7.5295 22.2854ZM17.9296 10.5151C18.1887 10.1919 18.1368 9.7199 17.8137 9.46076C17.4906 9.20163 17.0185 9.25352 16.7594 9.57666L17.9296 10.5151ZM10.2594 4.70162C10.0003 5.02475 10.0521 5.49679 10.3753 5.75594C10.6984 6.0151 11.1704 5.96324 11.4296 5.64011L10.2594 4.70162ZM13.425 1.95337L14.0101 2.42261C14.0199 2.41032 14.0294 2.39772 14.0385 2.38483L13.425 1.95337ZM16.0721 1.43337L16.5519 0.856927C16.528 0.837046 16.503 0.818668 16.4768 0.801901L16.0721 1.43337ZM19.7072 4.45912L20.2381 3.92928C20.2218 3.91297 20.2048 3.89742 20.1871 3.88268L19.7072 4.45912ZM20.2548 5.79304L21.0048 5.79716L21.0048 5.79716L20.2548 5.79304ZM19.6926 7.12087L19.1677 6.58522C19.1464 6.60606 19.1264 6.62814 19.1078 6.65135L19.6926 7.12087ZM16.7596 9.57635C16.5003 9.89936 16.552 10.3714 16.875 10.6307C17.198 10.89 17.6701 10.8384 17.9294 10.5154L16.7596 9.57635ZM11.5862 5.05972C11.5248 4.65008 11.143 4.36776 10.7334 4.42915C10.3237 4.49053 10.0414 4.87238 10.1028 5.28202L11.5862 5.05972ZM17.4455 10.789C17.8559 10.7333 18.1434 10.3553 18.0877 9.94489C18.0319 9.53445 17.654 9.24693 17.2435 9.3027L17.4455 10.789ZM10.2544 4.70182L0.670143 16.6602L1.84061 17.5983L11.4249 5.63991L10.2544 4.70182ZM0.687344 16.6395C0.416913 16.9532 0.256042 17.3464 0.22909 17.7597L1.72591 17.8573C1.73164 17.7694 1.76587 17.6857 1.82341 17.619L0.687344 16.6395ZM0.228303 17.7738L0.000802995 22.6862L1.4992 22.7556L1.7267 17.8432L0.228303 17.7738ZM0.00395788 22.7978C0.111426 23.8398 1.00649 24.6211 2.05339 24.5868L2.00436 23.0876C1.7447 23.0961 1.5227 22.9023 1.49604 22.6439L0.00395788 22.7978ZM2.20183 24.567L7.07683 23.4117L6.73092 21.9521L1.85592 23.1075L2.20183 24.567ZM7.0885 23.4088C7.48838 23.3072 7.8455 23.0809 8.10805 22.7626L6.95095 21.8081C6.89129 21.8804 6.81013 21.9319 6.71925 21.9549L7.0885 23.4088ZM8.11461 22.7546L17.9296 10.5151L16.7594 9.57666L6.94439 21.8162L8.11461 22.7546ZM11.4296 5.64011L14.0101 2.42261L12.8399 1.48413L10.2594 4.70162L11.4296 5.64011ZM14.0385 2.38483C14.4082 1.85917 15.1264 1.71809 15.6675 2.06483L16.4768 0.801901C15.2593 0.0217295 13.6434 0.339168 12.8115 1.5219L14.0385 2.38483ZM15.5923 2.00981L19.2274 5.03556L20.1871 3.88268L16.5519 0.856927L15.5923 2.00981ZM19.1764 4.98896C19.3882 5.20113 19.5064 5.48914 19.5048 5.78892L21.0048 5.79716C21.0086 5.09719 20.7326 4.4247 20.2381 3.92928L19.1764 4.98896ZM19.5048 5.78892C19.5031 6.0887 19.3818 6.37539 19.1677 6.58522L20.2176 7.65651C20.7175 7.16655 21.0009 6.49714 21.0048 5.79716L19.5048 5.78892ZM19.1078 6.65135L16.7596 9.57635L17.9294 10.5154L20.2775 7.59038L19.1078 6.65135ZM10.1028 5.28202C10.6325 8.81682 13.9038 11.2703 17.4455 10.789L17.2435 9.3027C14.5147 9.67347 11.9943 7.78317 11.5862 5.05972L10.1028 5.28202Z" fill="#575555"/>
</svg>
