<svg width="20" height="20" viewBox="0 0 20 20" fill="none" xmlns="http://www.w3.org/2000/svg">
<path fill-rule="evenodd" clip-rule="evenodd" d="M5.48222 0H14.5178C15.5022 0 16.3511 1.49012e-08 17.0311 0.082C17.7589 0.17 18.4578 0.369 19.0233 0.879C19.59 1.389 19.8111 2.017 19.9089 2.672C20 3.284 20 4.048 20 4.934V5.95C20 6.21522 19.8829 6.46957 19.6746 6.65711C19.4662 6.84464 19.1836 6.95 18.8889 6.95C18.5942 6.95 18.3116 6.84464 18.1032 6.65711C17.8948 6.46957 17.7778 6.21522 17.7778 5.95V5C17.7778 4.029 17.7756 3.401 17.7067 2.939C17.6411 2.505 17.5367 2.369 17.4522 2.293C17.3678 2.217 17.2167 2.123 16.7344 2.064C16.2222 2.002 15.5233 2 14.4444 2H11.1111V19C11.1111 19.2652 10.994 19.5196 10.7857 19.7071C10.5773 19.8946 10.2947 20 10 20C9.70532 20 9.4227 19.8946 9.21433 19.7071C9.00595 19.5196 8.88889 19.2652 8.88889 19V2H5.55556C4.47667 2 3.77889 2.002 3.26556 2.064C2.78333 2.123 2.63222 2.217 2.54778 2.293C2.46333 2.369 2.35889 2.505 2.29333 2.939C2.22444 3.4 2.22222 4.029 2.22222 5V5.95C2.22222 6.21522 2.10516 6.46957 1.89679 6.65711C1.68841 6.84464 1.4058 6.95 1.11111 6.95C0.816426 6.95 0.533811 6.84464 0.325437 6.65711C0.117063 6.46957 0 6.21522 0 5.95V4.934C0 4.048 1.65568e-08 3.284 0.0911111 2.672C0.188889 2.017 0.41 1.388 0.976667 0.879C1.54333 0.369 2.24111 0.17 2.96889 0.082C3.64889 1.49012e-08 4.49778 0 5.48222 0Z" fill="#575555"/>
<path d="M4.44531 19H15.5564H4.44531Z" fill="#575555"/>
<path d="M4.44531 19H15.5564" stroke="#575555" stroke-width="2" stroke-linecap="round" stroke-linejoin="round"/>
</svg>
