<svg width="39" height="39" viewBox="0 0 39 39" fill="none" xmlns="http://www.w3.org/2000/svg">
<rect x="0.5" y="0.5" width="38" height="38" rx="4.5" stroke="#BABABA"/>
<path fill-rule="evenodd" clip-rule="evenodd" d="M15.934 9H24.066C24.952 9 25.716 9 26.328 9.082C26.983 9.17 27.612 9.369 28.121 9.879C28.631 10.389 28.83 11.017 28.918 11.672C29 12.284 29 13.048 29 13.934V14.95C29 15.2152 28.8946 15.4696 28.7071 15.6571C28.5196 15.8446 28.2652 15.95 28 15.95C27.7348 15.95 27.4804 15.8446 27.2929 15.6571C27.1054 15.4696 27 15.2152 27 14.95V14C27 13.029 26.998 12.401 26.936 11.939C26.877 11.505 26.783 11.369 26.707 11.293C26.631 11.217 26.495 11.123 26.061 11.064C25.6 11.002 24.971 11 24 11H21V28C21 28.2652 20.8946 28.5196 20.7071 28.7071C20.5196 28.8946 20.2652 29 20 29C19.7348 29 19.4804 28.8946 19.2929 28.7071C19.1054 28.5196 19 28.2652 19 28V11H16C15.029 11 14.401 11.002 13.939 11.064C13.505 11.123 13.369 11.217 13.293 11.293C13.217 11.369 13.123 11.505 13.064 11.939C13.002 12.4 13 13.029 13 14V14.95C13 15.2152 12.8946 15.4696 12.7071 15.6571C12.5196 15.8446 12.2652 15.95 12 15.95C11.7348 15.95 11.4804 15.8446 11.2929 15.6571C11.1054 15.4696 11 15.2152 11 14.95V13.934C11 13.048 11 12.284 11.082 11.672C11.17 11.017 11.369 10.388 11.879 9.879C12.389 9.369 13.017 9.17 13.672 9.082C14.284 9 15.048 9 15.934 9Z" fill="#575555"/>
<path d="M15 28H25H15Z" fill="#575555"/>
<path d="M15 28H25" stroke="#575555" stroke-width="2" stroke-linecap="round" stroke-linejoin="round"/>
</svg>
