<svg width="39" height="39" viewBox="0 0 39 39" fill="none" xmlns="http://www.w3.org/2000/svg">
<rect x="0.5" y="0.5" width="38" height="38" rx="4.5" fill="#A4A4A4" stroke="#A4A4A4"/>
<path fill-rule="evenodd" clip-rule="evenodd" d="M15.4822 9H24.5178C25.5022 9 26.3511 9 27.0311 9.082C27.7589 9.17 28.4578 9.369 29.0233 9.879C29.59 10.389 29.8111 11.017 29.9089 11.672C30 12.284 30 13.048 30 13.934V14.95C30 15.2152 29.8829 15.4696 29.6746 15.6571C29.4662 15.8446 29.1836 15.95 28.8889 15.95C28.5942 15.95 28.3116 15.8446 28.1032 15.6571C27.8948 15.4696 27.7778 15.2152 27.7778 14.95V14C27.7778 13.029 27.7756 12.401 27.7067 11.939C27.6411 11.505 27.5367 11.369 27.4522 11.293C27.3678 11.217 27.2167 11.123 26.7344 11.064C26.2222 11.002 25.5233 11 24.4444 11H21.1111V28C21.1111 28.2652 20.994 28.5196 20.7857 28.7071C20.5773 28.8946 20.2947 29 20 29C19.7053 29 19.4227 28.8946 19.2143 28.7071C19.006 28.5196 18.8889 28.2652 18.8889 28V11H15.5556C14.4767 11 13.7789 11.002 13.2656 11.064C12.7833 11.123 12.6322 11.217 12.5478 11.293C12.4633 11.369 12.3589 11.505 12.2933 11.939C12.2244 12.4 12.2222 13.029 12.2222 14V14.95C12.2222 15.2152 12.1052 15.4696 11.8968 15.6571C11.6884 15.8446 11.4058 15.95 11.1111 15.95C10.8164 15.95 10.5338 15.8446 10.3254 15.6571C10.1171 15.4696 10 15.2152 10 14.95V13.934C10 13.048 10 12.284 10.0911 11.672C10.1889 11.017 10.41 10.388 10.9767 9.879C11.5433 9.369 12.2411 9.17 12.9689 9.082C13.6489 9 14.4978 9 15.4822 9Z" fill="#575555"/>
<path d="M14.4453 28H25.5564H14.4453Z" fill="#575555"/>
<path d="M14.4453 28H25.5564" stroke="#575555" stroke-width="2" stroke-linecap="round" stroke-linejoin="round"/>
</svg>
